<?xml version="1.0" encoding="UTF-8"?>
<!DOCTYPE svg PUBLIC "-//W3C//DTD SVG 1.1//EN" "http://www.w3.org/Graphics/SVG/1.1/DTD/svg11.dtd">
<!-- Creator: CorelDRAW -->
<svg xmlns="http://www.w3.org/2000/svg" xml:space="preserve" width="2048px" height="2048px" style="shape-rendering:geometricPrecision; text-rendering:geometricPrecision; image-rendering:optimizeQuality; fill-rule:evenodd; clip-rule:evenodd"
viewBox="0 0 2048 2048"
 xmlns:xlink="http://www.w3.org/1999/xlink">
 <defs>
  <style type="text/css">
   <![CDATA[
    .fil2 {fill:none}
    .fil8 {fill:#0277BD}
    .fil5 {fill:#0288D1}
    .fil1 {fill:#1E88E5}
    .fil7 {fill:#2F5C1E}
    .fil6 {fill:#33691E}
    .fil4 {fill:#424242}
    .fil0 {fill:#42A5F5}
    .fil13 {fill:#81D4FA}
    .fil10 {fill:#BC040B}
    .fil3 {fill:#BDBDBD}
    .fil12 {fill:#D50000}
    .fil14 {fill:#E1F5FE}
    .fil9 {fill:#EF6C00}
    .fil11 {fill:#F57F17}
   ]]>
  </style>
   <clipPath id="id0">
    <path d="M1024 -0.0011811c565.541,0 1024,458.461 1024,1024 0,565.541 -458.461,1024 -1024,1024 -565.541,0 -1024,-458.461 -1024,-1024 0,-565.541 458.461,-1024 1024,-1024z"/>
   </clipPath>
 </defs>
 <g id="Layer_x0020_1">
  <metadata id="CorelCorpID_0Corel-Layer"/>
  <path class="fil0" d="M1024 -0.0011811c565.541,0 1024,458.461 1024,1024 0,565.541 -458.461,1024 -1024,1024 -565.541,0 -1024,-458.461 -1024,-1024 0,-565.541 458.461,-1024 1024,-1024z"/>
  <g style="clip-path:url(#id0)">
   <g id="_466414792">
    <g>
     <polygon id="_4625871281" class="fil1" points="1565.86,492.887 2701.74,1628.77 2702.94,1630.25 2704.1,1631.77 2705.22,1633.3 2706.31,1634.87 2707.36,1636.47 2708.38,1638.09 2709.35,1639.73 2710.29,1641.41 2711.19,1643.1 2712.04,1644.82 2712.86,1646.56 2713.63,1648.33 2714.37,1650.12 2715.06,1651.93 2715.7,1653.75 2716.31,1655.6 2716.87,1657.47 2717.38,1659.36 2717.85,1661.26 2718.27,1663.19 2718.64,1665.13 2718.97,1667.08 2719.24,1669.05 2719.47,1671.04 2719.65,1673.04 2719.78,1675.05 2719.86,1677.08 2719.88,1679.12 1584,543.235 1583.98,541.197 1583.9,539.17 1583.77,537.156 1583.59,535.156 1583.36,533.17 1583.08,531.199 1582.76,529.243 1582.39,527.304 1581.96,525.382 1581.5,523.477 1580.98,521.589 1580.43,519.721 1579.82,517.871 1579.18,516.043 1578.49,514.235 1577.75,512.446 1576.98,510.682 1576.16,508.939 1575.31,507.219 1574.41,505.523 1573.47,503.852 1572.5,502.205 1571.48,500.585 1570.43,498.99 1569.34,497.422 1568.22,495.883 1567.06,494.371 "/>
     <polygon id="_462584464" class="fil1" points="1584,543.235 2719.88,1679.12 2719.88,1985.71 1584,849.823 "/>
     <polygon id="_462584776" class="fil1" points="1584,849.823 2719.88,1985.71 2719.88,2640.65 1584,1504.76 "/>
     <polygon id="_462584248" class="fil1" points="1584,1504.76 2719.88,2640.65 2719.86,2642.69 2719.78,2644.71 2719.65,2646.73 2719.47,2648.73 2719.24,2650.71 2718.97,2652.68 2718.64,2654.64 2718.27,2656.58 2717.85,2658.5 2717.38,2660.41 2716.87,2662.29 2716.31,2664.16 2715.7,2666.01 2715.06,2667.84 2714.37,2669.65 2713.63,2671.44 2712.86,2673.2 2712.04,2674.94 2711.19,2676.66 2710.29,2678.36 2709.35,2680.03 2708.38,2681.68 2707.36,2683.3 2706.31,2684.89 2705.22,2686.46 2704.1,2688 2702.94,2689.51 2701.74,2690.99 2700.51,2692.45 2699.25,2693.87 2697.95,2695.26 2696.62,2696.63 1560.74,1560.74 1562.07,1559.38 1563.37,1557.99 1564.63,1556.57 1565.86,1555.11 1567.06,1553.63 1568.22,1552.12 1569.34,1550.58 1570.43,1549.01 1571.48,1547.42 1572.5,1545.79 1573.47,1544.15 1574.41,1542.48 1575.31,1540.78 1576.16,1539.06 1576.98,1537.32 1577.75,1535.55 1578.49,1533.77 1579.18,1531.96 1579.82,1530.13 1580.43,1528.28 1580.98,1526.41 1581.5,1524.52 1581.96,1522.62 1582.39,1520.7 1582.76,1518.76 1583.08,1516.8 1583.36,1514.83 1583.59,1512.84 1583.77,1510.84 1583.9,1508.83 1583.98,1506.8 "/>
     <polygon id="_462584848" class="fil1" points="1560.74,1560.74 2696.62,2696.63 2695.26,2697.95 2693.87,2699.25 2692.45,2700.51 2690.99,2701.75 2689.51,2702.94 2688,2704.1 2686.46,2705.22 2684.89,2706.31 2683.3,2707.37 2681.68,2708.38 2680.03,2709.35 2678.36,2710.29 2676.66,2711.19 2674.94,2712.04 2673.2,2712.86 2671.43,2713.64 2669.65,2714.37 2667.84,2715.06 2666.01,2715.71 2664.16,2716.31 2662.29,2716.87 2660.4,2717.38 2658.5,2717.85 2656.58,2718.27 2654.64,2718.64 2652.68,2718.97 2650.71,2719.24 2648.73,2719.47 2646.72,2719.65 2644.71,2719.78 2642.68,2719.86 2640.65,2719.88 1504.76,1584 1506.8,1583.98 1508.83,1583.9 1510.84,1583.77 1512.84,1583.59 1514.83,1583.36 1516.8,1583.08 1518.76,1582.76 1520.7,1582.39 1522.62,1581.96 1524.52,1581.5 1526.41,1580.98 1528.28,1580.43 1530.13,1579.82 1531.96,1579.18 1533.77,1578.49 1535.55,1577.75 1537.32,1576.98 1539.06,1576.16 1540.78,1575.31 1542.48,1574.41 1544.15,1573.47 1545.79,1572.5 1547.42,1571.48 1549.01,1570.43 1550.58,1569.34 1552.12,1568.22 1553.63,1567.06 1555.11,1565.86 1556.57,1564.63 1557.99,1563.37 1559.38,1562.07 "/>
     <polygon id="_462584104" class="fil1" points="1504.76,1584 2640.65,2719.88 1679.12,2719.88 543.235,1584 "/>
     <polygon id="_462582712" class="fil1" points="543.235,1584 1679.12,2719.88 1677.08,2719.86 1675.05,2719.78 1673.04,2719.65 1671.04,2719.47 1669.05,2719.24 1667.08,2718.97 1665.12,2718.64 1663.18,2718.27 1661.26,2717.85 1659.36,2717.38 1657.47,2716.87 1655.6,2716.31 1653.75,2715.71 1651.92,2715.06 1650.12,2714.37 1648.33,2713.64 1646.56,2712.86 1644.82,2712.04 1643.1,2711.19 1641.4,2710.29 1639.73,2709.35 1638.09,2708.38 1636.47,2707.37 1634.87,2706.31 1633.3,2705.22 1631.76,2704.1 1630.25,2702.94 1628.77,2701.75 492.887,1565.86 494.371,1567.06 495.883,1568.22 497.422,1569.34 498.99,1570.43 500.585,1571.48 502.205,1572.5 503.852,1573.47 505.523,1574.41 507.219,1575.31 508.939,1576.16 510.682,1576.98 512.446,1577.75 514.235,1578.49 516.043,1579.18 517.871,1579.82 519.721,1580.43 521.589,1580.98 523.477,1581.5 525.382,1581.96 527.304,1582.39 529.243,1582.76 531.199,1583.08 533.17,1583.36 535.156,1583.59 537.156,1583.77 539.17,1583.9 541.197,1583.98 "/>
    </g>
    <path id="_466415104" class="fil1" d="M543.235 463.999l961.529 0c21.8138,0 41.6292,8.90788 55.9784,23.2583 14.3504,14.3492 23.2583,34.1646 23.2583,55.9784l0 306.587 0 654.942c0,21.8138 -8.90788,41.6292 -23.2583,55.9784 -14.3492,14.3504 -34.1646,23.2583 -55.9784,23.2583l-961.529 0c-21.8138,0 -41.6292,-8.90788 -55.9784,-23.2583 -14.3504,-14.3492 -23.2583,-34.1646 -23.2583,-55.9784l0 -654.942 0 -306.587c0,-21.8138 8.90788,-41.6292 23.2583,-55.9784 14.3492,-14.3504 34.1646,-23.2583 55.9784,-23.2583z"/>
   </g>
  </g>
  <path class="fil2" d="M1024 -0.0011811c565.541,0 1024,458.461 1024,1024 0,565.541 -458.461,1024 -1024,1024 -565.541,0 -1024,-458.461 -1024,-1024 0,-565.541 458.461,-1024 1024,-1024z"/>
  <path class="fil3" d="M543.235 463.999l961.529 0c21.8138,0 41.6292,8.90788 55.9784,23.2583 14.3504,14.3492 23.2583,34.1646 23.2583,55.9784l0 961.529c0,21.8138 -8.90788,41.6292 -23.2583,55.9784 -14.3492,14.3504 -34.1646,23.2583 -55.9784,23.2583l-961.529 0c-21.8138,0 -41.6292,-8.90788 -55.9784,-23.2583 -14.3504,-14.3492 -23.2583,-34.1646 -23.2583,-55.9784l0 -961.529c0,-21.8138 8.90788,-41.6292 23.2583,-55.9784 14.3492,-14.3504 34.1646,-23.2583 55.9784,-23.2583z"/>
  <path class="fil4" d="M543.235 463.999l961.529 0c21.8138,0 41.6292,8.90788 55.9784,23.2583 14.3504,14.3492 23.2583,34.1646 23.2583,55.9784l0 306.587 -1120 0 0 -306.587c0,-21.8138 8.90788,-41.6292 23.2583,-55.9784 14.3492,-14.3504 34.1646,-23.2583 55.9784,-23.2583z"/>
  <polygon class="fil5" points="581.836,1210.66 977.33,1210.66 1000.66,1210.66 1000.66,1232.05 1000.66,1445.94 1000.66,1467.33 977.33,1467.33 581.836,1467.33 558.502,1467.33 558.502,1445.94 558.502,1232.05 558.502,1210.66 "/>
  <polygon class="fil6" points="581.836,883.994 977.33,883.994 1000.66,883.994 1000.66,905.383 1000.66,1119.27 1000.66,1140.66 977.33,1140.66 581.836,1140.66 558.502,1140.66 558.502,1119.27 558.502,905.383 558.502,883.994 "/>
  <polygon class="fil7" points="581.836,1140.66 977.33,1140.66 1000.66,1140.66 1000.66,1142.61 1000.66,1162.05 1000.66,1163.99 977.33,1163.99 581.836,1163.99 558.502,1163.99 558.502,1162.05 558.502,1142.61 558.502,1140.66 "/>
  <polygon class="fil8" points="581.836,1490.66 977.33,1490.66 1000.66,1490.66 1000.66,1488.72 1000.66,1469.27 1000.66,1467.33 977.33,1467.33 581.836,1467.33 558.502,1467.33 558.502,1469.27 558.502,1488.72 558.502,1490.66 "/>
  <polygon class="fil9" points="1070.67,1140.66 1466.16,1140.66 1489.49,1140.66 1489.49,1142.61 1489.49,1162.05 1489.49,1163.99 1466.16,1163.99 1070.67,1163.99 1047.33,1163.99 1047.33,1162.05 1047.33,1142.61 1047.33,1140.66 "/>
  <polygon class="fil10" points="1070.67,1490.66 1466.16,1490.66 1489.49,1490.66 1489.49,1488.72 1489.49,1469.27 1489.49,1467.33 1466.16,1467.33 1070.67,1467.33 1047.33,1467.33 1047.33,1469.27 1047.33,1488.72 1047.33,1490.66 "/>
  <polygon class="fil11" points="1070.66,883.994 1466.16,883.994 1489.5,883.994 1489.5,905.383 1489.5,1119.27 1489.5,1140.66 1466.16,1140.66 1070.66,1140.66 1047.33,1140.66 1047.33,1119.27 1047.33,905.383 1047.33,883.994 "/>
  <polygon class="fil12" points="1070.66,1210.66 1466.16,1210.66 1489.5,1210.66 1489.5,1232.05 1489.5,1445.94 1489.5,1467.33 1466.16,1467.33 1070.66,1467.33 1047.33,1467.33 1047.33,1445.94 1047.33,1232.05 1047.33,1210.66 "/>
  <polygon class="fil13" points="581.836,557.326 1466.16,557.326 1489.5,557.326 1489.5,580.66 1489.5,790.661 1489.5,813.995 1466.16,813.995 581.836,813.995 558.502,813.995 558.502,790.661 558.502,580.66 558.502,557.326 "/>
  <polygon class="fil14" points="743.996,1093.99 743.996,1047.33 697.329,1047.33 697.329,1000.66 743.996,1000.66 743.996,953.995 790.664,953.995 790.664,1000.66 837.329,1000.66 837.329,1047.33 790.664,1047.33 790.664,1093.99 "/>
  <polygon class="fil14" points="800.33,1416.66 767.33,1383.66 734.329,1416.66 701.334,1383.66 734.334,1350.66 701.334,1317.66 734.329,1284.67 767.33,1317.67 800.33,1284.67 833.325,1317.66 800.324,1350.66 833.325,1383.66 "/>
  <polygon class="fil14" points="1186.81,1000.66 1350.02,1000.66 1350.02,1047.33 1186.81,1047.33 "/>
  <polygon class="fil14" points="1186.59,1362.67 1350.23,1362.67 1350.23,1409.34 1186.59,1409.34 "/>
  <polygon class="fil14" points="1186.59,1291.98 1350.23,1291.98 1350.23,1338.65 1186.59,1338.65 "/>
 </g>
</svg>
