<svg xmlns="http://www.w3.org/2000/svg" viewBox="0 0 48 48"><defs><style>.cls-1{fill:#db5669;}.cls-2{fill:#f26674;}.cls-3{fill:#dad7e5;}.cls-4{fill:#edebf2;}.cls-5{fill:#425b72;}.cls-6{fill:#374f68;}</style></defs><title>Startup</title><g id="Startup"><path class="cls-1" d="M41,37.27V45l-7.79-5.85a34.8,34.8,0,0,0,2.11-9.45Z"/><path class="cls-1" d="M14.79,39.15,7,45V37.27l1-1.33,4.68-6.24a34.65,34.65,0,0,0,1.76,8.46C14.55,38.49,14.67,38.82,14.79,39.15Z"/><path class="cls-2" d="M14.44,38.16l-.8.6A3.52,3.52,0,0,1,8,35.94H8l4.68-6.24A34.65,34.65,0,0,0,14.44,38.16Z"/><path class="cls-2" d="M33.56,38.16l.8.6A3.52,3.52,0,0,0,40,35.94h0L35.32,29.7A34.65,34.65,0,0,1,33.56,38.16Z"/><path class="cls-1" d="M32.55,13H15.45A35,35,0,0,1,23.51,1.47L24,1l.49.47.05.05A35.08,35.08,0,0,1,31.61,11C32,11.66,32.26,12.32,32.55,13Z"/><path class="cls-2" d="M31.61,11H28.76a5.68,5.68,0,0,1-4.22-9.48h0A35.08,35.08,0,0,1,31.61,11Z"/><path class="cls-3" d="M35.32,29.69h0a34.8,34.8,0,0,1-2.11,9.45c-.11.29-.22.57-.34.85-.26.67-.55,1.34-.87,2H16c-.45-.94-.85-1.89-1.21-2.85a34.8,34.8,0,0,1-2.11-9.45h0A35.08,35.08,0,0,1,15.45,13h17.1A35.08,35.08,0,0,1,35.32,29.69Z"/><path class="cls-4" d="M35.32,29.69h0A34.62,34.62,0,0,1,32.88,40H22a4.43,4.43,0,0,1-4.16-2.82v0a34.8,34.8,0,0,1-2.11-9.45h0a35.06,35.06,0,0,1,2-14.69H32.55A35.08,35.08,0,0,1,35.32,29.69Z"/><path class="cls-5" d="M24,43a1,1,0,0,1-1-1V38a1,1,0,0,1,2,0v4A1,1,0,0,1,24,43Z"/><path class="cls-6" d="M29,26a4.93,4.93,0,0,1-.61,2.39,5,5,0,1,1-6.78-6.78A4.93,4.93,0,0,1,24,21,5,5,0,0,1,29,26Z"/><path class="cls-5" d="M29,26a4.93,4.93,0,0,1-.61,2.39A4.93,4.93,0,0,1,26,29a5,5,0,0,1-5-5,4.93,4.93,0,0,1,.61-2.39A4.93,4.93,0,0,1,24,21,5,5,0,0,1,29,26Z"/><polygon class="cls-6" points="30 42 29.1 45 28.5 47 19.5 47 18 42 30 42"/><path class="cls-5" d="M30,42l-.9,3H25.63a4.2,4.2,0,0,1-4-3H30Z"/></g></svg>