<?xml version="1.0" encoding="iso-8859-1"?>
<!-- Generator: Adobe Illustrator 19.0.0, SVG Export Plug-In . SVG Version: 6.00 Build 0)  -->
<svg xmlns="http://www.w3.org/2000/svg" xmlns:xlink="http://www.w3.org/1999/xlink" version="1.1" id="Layer_1" x="0px" y="0px" viewBox="0 0 512 512" style="enable-background:new 0 0 512 512;" xml:space="preserve">
<path style="fill:#965326;" d="M256.148,202.263c-29.618,0-53.716,24.097-53.716,53.716s24.098,53.716,53.716,53.716  s53.716-24.097,53.716-53.716C309.864,226.359,285.766,202.263,256.148,202.263z"/>
<circle style="fill:#DB742E;" cx="256.147" cy="255.977" r="22.138"/>
<path style="fill:#C65B12;" d="M256.148,255.979c0-8.194,4.455-15.345,11.071-19.174c-3.258-1.885-7.036-2.97-11.071-2.97  c-12.229,0-22.142,9.914-22.142,22.143c0,12.23,9.913,22.144,22.142,22.144c4.035,0,7.814-1.085,11.071-2.97  C260.603,271.323,256.148,264.174,256.148,255.979z"/>
<path style="fill:#965326;" d="M447.433,198.051c-29.542,12.024-68.715,21.651-113.965,27.77c7.106,18.155,7.476,37.877,1.6,55.871  c42.699,3.038,82.178,7.7,117.014,13.667C458.511,263.198,456.984,229.627,447.433,198.051z"/>
<path style="fill:#77411D;" d="M335.069,281.691c42.699,3.038,82.178,7.7,117.014,13.667c2.87-14.358,4.145-28.871,3.84-43.64  H339.049C339.579,262.085,338.185,272.151,335.069,281.691z"/>
<path style="fill:#965326;" d="M178.835,225.8c-45.258-6.128-84.429-15.769-113.955-27.807c-5.556,18.353-8.556,37.818-8.556,57.986  c0,13.49,1.344,26.665,3.893,39.405c34.835-5.972,74.311-10.641,117.014-13.684C171.36,263.732,171.707,244.004,178.835,225.8z"/>
<path style="fill:#77411D;" d="M56.373,251.718c-0.029,1.417-0.049,2.837-0.049,4.262c0,13.49,1.344,26.665,3.893,39.405  c34.835-5.972,74.311-10.641,117.014-13.684c-3.112-9.522-4.517-19.59-3.984-29.983H56.373z"/>
<path style="fill:#965326;" d="M286.901,333.064c-19.211,7.691-41.222,8.122-61.508,0c0.706,39.15-4.147,80.431-15.773,117.28  c14.931,3.56,30.507,5.459,46.527,5.459c16.021,0,31.595-1.898,46.525-5.459C291.044,413.481,286.196,372.2,286.901,333.064z"/>
<path style="fill:#77411D;" d="M255.41,455.792V338.977c-10.593-0.095-20.715-2.189-30.016-5.912  c0.706,39.15-4.147,80.431-15.773,117.28C224.321,453.85,239.65,455.735,255.41,455.792z"/>
<path style="fill:#FF8C01;" d="M433.605,78.523c-98.08-98.081-256.825-98.088-354.912,0c-47.401,47.4-73.505,110.422-73.505,177.456  s26.105,130.056,73.505,177.457c98.082,98.082,256.825,98.088,354.912,0C531.686,335.352,531.693,176.612,433.605,78.523z   M256.148,453.303c-108.804,0-197.324-88.519-197.324-197.325s88.52-197.324,197.324-197.324s197.324,88.519,197.324,197.325  S364.953,453.303,256.148,453.303z"/>
<path style="fill:#F45C0F;" d="M31.185,255.979c0-134.348,105.315-243.905,237.962-250.627C124.125-2,5.187,113.371,5.187,255.979  c0,142.996,119.336,257.96,263.96,250.627C136.689,499.893,31.185,390.513,31.185,255.979z"/>
<path style="fill:#FFC35A;" d="M256.148,171.963c-46.326,0-84.015,37.69-84.015,84.015c0,46.327,37.69,84.015,84.015,84.015  s84.015-37.689,84.015-84.015C340.164,209.653,302.474,171.963,256.148,171.963z M256.148,308.695  c-29.067,0-52.716-23.648-52.716-52.716c0-29.067,23.648-52.716,52.716-52.716c29.067,0,52.716,23.648,52.716,52.716  S285.216,308.695,256.148,308.695z"/>
<path style="fill:#F2A830;" d="M202.433,255.979c0-41.152,29.749-75.464,68.866-82.621c-4.919-0.899-9.977-1.395-15.15-1.395  c-46.326,0-84.015,37.69-84.015,84.015c0,52.009,47.207,92.122,99.166,82.621C232.182,331.444,202.433,297.132,202.433,255.979z"/>
<path d="M406.997,49.258c-3.341-2.446-8.034-1.719-10.48,1.625c-2.445,3.343-1.718,8.035,1.626,10.48  c61.897,45.278,98.851,118.032,98.851,194.616c0,132.867-108.096,240.962-240.962,240.962S15.069,388.845,15.069,255.979  c0-185.716,202.272-301.549,362.164-208.308c3.578,2.085,8.169,0.877,10.256-2.701c2.087-3.578,0.878-8.169-2.7-10.256  C287.932-21.767,160.032-10.005,75.039,74.988c-100.034,100.035-100.042,261.94,0,361.983  c100.035,100.035,261.941,100.044,361.985,0C548.36,325.633,533.492,141.786,406.997,49.258z"/>
<path d="M391.435,403.126c2.916,2.939,7.664,2.96,10.606,0.042c56.745-56.294,73.847-136.555,52.454-207.288  c-25.54-84.485-104.546-147.224-198.464-147.224c-103.926,0-189.463,76.653-204.829,175.191  c-18.173,116.214,64.174,224.957,181.509,238.137c52.337,5.886,105.423-7.81,149.077-41.163c3.291-2.515,3.921-7.221,1.406-10.513  c-2.515-3.289-7.22-3.92-10.513-1.406c-19.706,15.057-41.666,25.959-65.006,32.43c-9.492-32.896-13.66-68.929-13.439-103.309  c20.764-9.708,37.261-27.068,45.836-48.434c36.823,2.761,71.369,6.747,102.895,11.873c-8.258,34.235-25.838,65.608-51.49,91.058  C388.537,395.437,388.518,400.185,391.435,403.126z M256.031,63.654c84.239,0,155.996,54.444,181.949,129.99  c-27.02,10.186-61.316,18.401-99.99,23.949c-32.643-69.417-131.293-69.335-163.909-0.022c-38.681-5.555-72.975-13.782-99.981-23.98  C100.069,118.072,171.812,63.654,256.031,63.654z M167.51,274.895c-36.19,2.801-70.202,6.784-101.329,11.869  c-4.233-26.21-2.999-53.23,3.585-78.77c27.12,10.128,61.003,18.335,98.99,23.968C165.046,245.427,164.376,260.212,167.51,274.895z   M69.159,301.478c31.51-5.128,66.038-9.115,102.836-11.879c8.576,21.36,25.07,38.715,45.83,48.423  c0.224,34.514-3.984,70.506-13.419,103.236C137.757,422.663,85.598,368.989,69.159,301.478z M293.042,444.734  c-23.658,4.612-49.016,4.876-74.018-0.017c8.79-30.776,13.538-65.529,13.809-101.242c15.14,4.018,31.253,4.019,46.397,0.001  C279.499,379.195,284.248,413.954,293.042,444.734z M231.453,327.367c-34.165-11.831-55.359-46.244-50.145-82.256  c5.331-36.55,36.81-64.648,74.723-64.648c51.468,0,87.62,50.449,71.789,98.909C314.85,319.08,271.559,341.255,231.453,327.367z   M445.901,286.741c-31.132-5.079-65.146-9.059-101.346-11.857c2.914-13.657,2.738-28.439-1.242-42.9  c37.98-5.624,71.865-13.82,98.997-23.936C449.029,234.155,450,261.237,445.901,286.741z"/>
<path d="M226.39,255.979c0,16.345,13.298,29.643,29.642,29.643c16.345,0,29.641-13.298,29.641-29.643s-13.298-29.642-29.641-29.642  C239.686,226.336,226.39,239.634,226.39,255.979z M270.675,255.979c0,8.074-6.568,14.645-14.643,14.645  c-8.074,0-14.644-6.569-14.644-14.645c0-8.075,6.568-14.644,14.644-14.644C264.105,241.335,270.675,247.904,270.675,255.979z"/>
<path d="M98.199,268.166c4.143,0,7.499-3.357,7.499-7.499v-17.97c0-4.142-3.357-7.499-7.499-7.499s-7.499,3.358-7.499,7.499v17.97  C90.7,264.809,94.058,268.166,98.199,268.166z"/>
<path d="M126.524,268.166c4.143,0,7.499-3.357,7.499-7.499v-17.97c0-4.142-3.357-7.499-7.499-7.499  c-4.143,0-7.499,3.358-7.499,7.499v17.97C119.025,264.809,122.381,268.166,126.524,268.166z"/>
<path d="M256.031,194.764c-33.754,0-61.215,27.46-61.215,61.215c0,49.625,56.313,78.642,96.668,49.879  c3.373-2.403,4.159-7.086,1.755-10.459c-2.402-3.373-7.084-4.16-10.459-1.755c-30.428,21.685-72.965-0.176-72.965-37.666  c0-25.484,20.732-46.217,46.217-46.217c34.752,0,57.137,37.172,40.846,67.825c-1.943,3.657-0.555,8.197,3.104,10.142  c3.66,1.944,8.198,0.554,10.142-3.104C331.738,243.948,302.014,194.764,256.031,194.764z"/>
<g>
</g>
<g>
</g>
<g>
</g>
<g>
</g>
<g>
</g>
<g>
</g>
<g>
</g>
<g>
</g>
<g>
</g>
<g>
</g>
<g>
</g>
<g>
</g>
<g>
</g>
<g>
</g>
<g>
</g>
</svg>
