<?xml version="1.0" encoding="utf-8"?>
<!-- Generator: Adobe Illustrator 24.0.1, SVG Export Plug-In . SVG Version: 6.00 Build 0)  -->
<svg version="1.1" xmlns="http://www.w3.org/2000/svg" xmlns:xlink="http://www.w3.org/1999/xlink" x="0px" y="0px"
	 viewBox="0 0 203.3 251.9" style="enable-background:new 0 0 203.3 251.9;" xml:space="preserve">
<style type="text/css">
	.st0{display:none;}
	.st1{display:inline;fill:#F7F8FC;}
	.st2{display:inline;}
	.st3{fill:#F7F8FC;}
	.st4{fill:#FFFFFF;stroke:#0561FC;stroke-width:10.0091;}
	.st5{fill:#9AC7F7;}
	.st6{fill:#C5E1F9;stroke:#0561FC;stroke-width:10.0091;}
	.st7{fill:none;stroke:#0561FC;stroke-width:10.0091;}
	.st8{fill:#9AC7F7;stroke:#0561FC;stroke-width:10.0091;}
	.st9{fill:#FFFFFF;stroke:#0561FC;stroke-width:10.0091;stroke-linejoin:round;}
	.st10{fill:#C5E1F9;}
	.st11{fill:#FFFFFF;}
	.st12{fill:none;stroke:#0561FC;stroke-width:10.0091;stroke-linejoin:bevel;}
</style>
<g id="Layer_2">
</g>
<g id="Layer_3">
</g>
<g id="Layer_4">
	<g>
		<path class="st6" d="M5,251.9v-13.8c0-14.8,13.5-26.8,30.3-26.8H168c16.7,0,30.2,12,30.2,26.8v13.8"/>
		<path class="st4" d="M40,251.9v-9.3c0-10,8.6-18,19.3-18H144c10.7,0,19.3,8.1,19.3,18v9.3"/>
		<path class="st6" d="M101.5,243.3c22.9,0,38.9-10.6,38.9-25.7v-6.3H62.6v6.3C62.6,232.7,78.6,243.3,101.5,243.3z"/>
		<path class="st4" d="M101.5,228.2c-13.2,0-23.9-4.8-23.9-10.6v-56.9c0-5.9,10.7-10.6,23.9-10.6l0,0c13.2,0,23.9,4.8,23.9,10.6
			v56.9C125.4,223.5,114.7,228.2,101.5,228.2L101.5,228.2z"/>
		<path class="st4" d="M160.4,138.8c0,16.6-18.4,55.1-35,55.1H77.9c-16.6,0-35-38.5-35-55.1V74.9c0-16.6,13.4-30.1,30-30.1h57.5
			c16.6,0,30,13.5,30,30.1V138.8z"/>
		<path class="st7" d="M84.2,95.8c6.1,0,11,4.9,11,11v33.7"/>
		<path class="st7" d="M84.4,156c-0.1,0.5-0.1,1-0.1,1.6c0,7.8,6.3,14.1,14.1,14.1h1.9c7.8,0,14.1-6.3,14.1-14.1
			c0-0.5,0-1.1-0.1-1.6H84.4z"/>
		<path class="st4" d="M42.7,91.6h-4.2c-5.5,0-10,4.5-10,10V125c0,5.5,4.5,10,10,10h4.2V91.6z"/>
		<path class="st4" d="M161,135h4.2c5.5,0,10-4.5,10-10v-23.4c0-5.5-4.5-10-10-10H161V135z"/>
		<path class="st6" d="M147,30.6h-4c7.7-3.4,12.5-7.9,12.5-12.7c0-10.7-27.8-15.1-55.6-11.9C66.8,9.8,48.5,32.3,48.5,32.3
			c-8.6,0-20.6,7-20.6,15.7c0,0.6,0.1,1.2,0.2,1.8l-0.2,0v46.3h15V74.9c0-10,4.9-18.9,12.4-24.3l6.1-1.5
			c8.1,9.3,22.6,16.5,39.8,18.5c13.7,1.6,26.5-0.5,36.2-5.1c-6.7-5.2-12.3-11.4-16.3-18.3l26.8,6.4c7.5,5.5,12.4,14.3,12.4,24.3
			v21.3h15V39.8L147,30.6z"/>
		<path class="st4" d="M159.3,120c0,4.2-3.4,7.5-7.5,7.5h-35c-4.1,0-7.5-3.4-7.5-7.5v-13.8c0-4.2,3.4-7.5,7.5-7.5h35
			c4.1,0,7.5,3.4,7.5,7.5V120z"/>
		<path class="st4" d="M94.3,120c0,4.2-3.4,7.5-7.5,7.5h-35c-4.1,0-7.5-3.4-7.5-7.5v-13.8c0-4.2,3.4-7.5,7.5-7.5h35
			c4.1,0,7.5,3.4,7.5,7.5V120z"/>
		<line class="st7" x1="78.3" y1="112" x2="66.1" y2="112"/>
		<line class="st7" x1="129.9" y1="112" x2="117.7" y2="112"/>
	</g>
</g>
</svg>
